<svg width="110" height="600" xmlns="http://www.w3.org/2000/svg">
 <defs>
  <linearGradient id="svg_26" x1="0" y1="0" x2="0.70313" y2="0">
   <stop stop-color="#16d0cf" offset="0"/>
   <stop stop-color="#e92f30" stop-opacity="0" offset="0.89844"/>
   <stop stop-color="0" stop-opacity="0" offset="0.90625"/>
   <stop stop-color="0" stop-opacity="0" offset="NaN"/>
   <stop stop-color="0" stop-opacity="0" offset="NaN"/>
   <stop stop-color="0" stop-opacity="0" offset="NaN"/>
   <stop stop-color="0" stop-opacity="0" offset="NaN"/>
  </linearGradient>
 </defs>
 <g>
  <title>Layer 1</title>
  <ellipse fill="url(#svg_26)" stroke="#3e2a3c" cx="43.5" cy="43.7" id="svg_3" rx="42.5" ry="42.5" fill-opacity="0.5" stroke-opacity="0"/>
  <ellipse fill="url(#svg_26)" stroke="#3e2a3c" cx="43.5" cy="127.7" id="svg_27" rx="42.5" ry="42.5" fill-opacity="0.5" stroke-opacity="0"/>
  <ellipse fill="url(#svg_26)" stroke="#3e2a3c" cx="43.5" cy="211.70007" id="svg_28" rx="42.5" ry="42.5" fill-opacity="0.5" stroke-opacity="0"/>
  <ellipse fill="url(#svg_26)" stroke="#3e2a3c" cx="43.5" cy="295.70007" id="svg_29" rx="42.5" ry="42.5" fill-opacity="0.5" stroke-opacity="0"/>
  <ellipse fill="url(#svg_26)" stroke="#3e2a3c" cx="43.5" cy="379.70014" id="svg_30" rx="42.5" ry="42.5" fill-opacity="0.5" stroke-opacity="0"/>
  <ellipse fill="url(#svg_26)" stroke="#3e2a3c" cx="43.5" cy="463.70014" id="svg_31" rx="42.5" ry="42.5" fill-opacity="0.5" stroke-opacity="0"/>
  <ellipse fill="url(#svg_26)" stroke="#3e2a3c" cx="43.5" cy="547.70021" id="svg_32" rx="42.5" ry="42.5" fill-opacity="0.5" stroke-opacity="0"/>
  <ellipse fill="url(#svg_26)" stroke="#3e2a3c" cx="43.5" cy="631.70021" id="svg_33" rx="42.5" ry="42.5" fill-opacity="0.5" stroke-opacity="0"/>
  <ellipse fill="url(#svg_26)" stroke="#3e2a3c" cx="43.5" cy="43.7" id="svg_34" rx="42.5" ry="42.5" fill-opacity="0.5" stroke-opacity="0"/>
  <ellipse fill="url(#svg_26)" stroke="#3e2a3c" cx="43.5" cy="127.7" id="svg_35" rx="42.5" ry="42.5" fill-opacity="0.5" stroke-opacity="0"/>
  <ellipse fill="url(#svg_26)" stroke="#3e2a3c" cx="43.5" cy="211.70007" id="svg_36" rx="42.5" ry="42.5" fill-opacity="0.5" stroke-opacity="0"/>
  <ellipse fill="url(#svg_26)" stroke="#3e2a3c" cx="43.5" cy="295.70007" id="svg_37" rx="42.5" ry="42.5" fill-opacity="0.5" stroke-opacity="0"/>
  <ellipse fill="url(#svg_26)" stroke="#3e2a3c" cx="43.5" cy="379.70014" id="svg_38" rx="42.5" ry="42.5" fill-opacity="0.5" stroke-opacity="0"/>
  <ellipse fill="url(#svg_26)" stroke="#3e2a3c" cx="43.5" cy="463.70014" id="svg_39" rx="42.5" ry="42.5" fill-opacity="0.5" stroke-opacity="0"/>
  <ellipse fill="url(#svg_26)" stroke="#3e2a3c" cx="43.5" cy="547.70021" id="svg_40" rx="42.5" ry="42.5" fill-opacity="0.5" stroke-opacity="0"/>
  <ellipse fill="url(#svg_26)" stroke="#3e2a3c" cx="43.5" cy="631.70021" id="svg_41" rx="42.5" ry="42.5" fill-opacity="0.5" stroke-opacity="0"/>
  <ellipse fill="url(#svg_26)" stroke="#3e2a3c" cx="98.16669" cy="1.03332" id="svg_42" rx="42.5" ry="42.5" fill-opacity="0.5" stroke-opacity="0"/>
  <ellipse fill="url(#svg_26)" stroke="#3e2a3c" cx="98.16669" cy="85.03332" id="svg_43" rx="42.5" ry="42.5" fill-opacity="0.5" stroke-opacity="0"/>
  <ellipse fill="url(#svg_26)" stroke="#3e2a3c" cx="98.16669" cy="169.03339" id="svg_44" rx="42.5" ry="42.5" fill-opacity="0.5" stroke-opacity="0"/>
  <ellipse fill="url(#svg_26)" stroke="#3e2a3c" cx="98.16669" cy="253.03339" id="svg_45" rx="42.5" ry="42.5" fill-opacity="0.5" stroke-opacity="0"/>
  <ellipse fill="url(#svg_26)" stroke="#3e2a3c" cx="98.16669" cy="337.03346" id="svg_46" rx="42.5" ry="42.5" fill-opacity="0.5" stroke-opacity="0"/>
  <ellipse fill="url(#svg_26)" stroke="#3e2a3c" cx="98.16669" cy="421.03346" id="svg_47" rx="42.5" ry="42.5" fill-opacity="0.5" stroke-opacity="0"/>
  <ellipse fill="url(#svg_26)" stroke="#3e2a3c" cx="98.16669" cy="505.03353" id="svg_48" rx="42.5" ry="42.5" fill-opacity="0.5" stroke-opacity="0"/>
  <ellipse fill="url(#svg_26)" stroke="#3e2a3c" cx="98.16669" cy="589.03353" id="svg_49" rx="42.5" ry="42.5" fill-opacity="0.5" stroke-opacity="0"/>
  <ellipse fill="url(#svg_26)" stroke="#3e2a3c" cx="98.16669" cy="1.03332" id="svg_50" rx="42.5" ry="42.5" fill-opacity="0.5" stroke-opacity="0"/>
  <ellipse fill="url(#svg_26)" stroke="#3e2a3c" cx="98.16669" cy="85.03332" id="svg_51" rx="42.5" ry="42.5" fill-opacity="0.5" stroke-opacity="0"/>
  <ellipse fill="url(#svg_26)" stroke="#3e2a3c" cx="98.16669" cy="169.03339" id="svg_52" rx="42.5" ry="42.5" fill-opacity="0.5" stroke-opacity="0"/>
  <ellipse fill="url(#svg_26)" stroke="#3e2a3c" cx="98.16669" cy="253.03339" id="svg_53" rx="42.5" ry="42.5" fill-opacity="0.5" stroke-opacity="0"/>
  <ellipse fill="url(#svg_26)" stroke="#3e2a3c" cx="98.16669" cy="337.03346" id="svg_54" rx="42.5" ry="42.5" fill-opacity="0.5" stroke-opacity="0"/>
  <ellipse fill="url(#svg_26)" stroke="#3e2a3c" cx="98.16669" cy="421.03346" id="svg_55" rx="42.5" ry="42.5" fill-opacity="0.5" stroke-opacity="0"/>
  <ellipse fill="url(#svg_26)" stroke="#3e2a3c" cx="98.16669" cy="505.03353" id="svg_56" rx="42.5" ry="42.5" fill-opacity="0.5" stroke-opacity="0"/>
  <ellipse fill="url(#svg_26)" stroke="#3e2a3c" cx="98.16669" cy="589.03353" id="svg_57" rx="42.5" ry="42.5" fill-opacity="0.5" stroke-opacity="0"/>
 </g>
</svg>